<svg id="Layer_1" data-name="Layer 1" xmlns="http://www.w3.org/2000/svg" xmlns:xlink="http://www.w3.org/1999/xlink" viewBox="0 0 512 512"><defs><linearGradient id="linear-gradient" x1="256" y1="512" x2="256" gradientUnits="userSpaceOnUse"><stop offset="0" stop-color="#02699e"/><stop offset="1" stop-color="#8abce5"/></linearGradient></defs><title>email</title><path d="M512,412.3A99.7,99.7,0,0,1,412.3,512H99.7A99.7,99.7,0,0,1,0,412.3V99.7A99.7,99.7,0,0,1,99.7,0H412.3A99.7,99.7,0,0,1,512,99.7Z" fill="url(#linear-gradient)"/><path d="M412.3,512a101.74,101.74,0,0,0,13.44-1,99.73,99.73,0,0,0,83.07-73.93l-46-1.2A166.61,166.61,0,0,0,507,328.37a188.19,188.19,0,0,0-2.45-37.31,165,165,0,0,0-8.63-31.69,154.94,154.94,0,0,0-37-56c-16.28-15.76-36.09-28.11-58.93-36.74-22.4-8.47-47.28-13.11-73.94-13.79-32.37-.86-62.73,3.83-90.24,13.92h0c-27.79,10.21-51.9,25-71.7,44.06a201.5,201.5,0,0,0-46.23,67.8c-10.8,25.67-16.74,53.74-17.65,83.44-.88,28.75,3.33,55.63,12.49,79.89a172.49,172.49,0,0,0,42.9,64.68c2,1.88,4.23,3.55,6.31,5.35H412.3ZM275.87,341.08c3.9-10.14,9.13-18.29,15.57-24.18,5.91-5.4,10.47-6,13.77-5.92a11.14,11.14,0,0,1,4.66.92,7.16,7.16,0,0,1,2.52,2.32,18.75,18.75,0,0,1,2.92,6.47,39.92,39.92,0,0,1,1.1,11.57,112.69,112.69,0,0,1-7,34.61c-3.92,10.94-9.32,19.86-16.09,26.53-6,5.94-10.9,6.59-14.49,6.51-3-.1-4.35-.81-6.15-3.25-1-1.31-2.37-4-3.18-8.83a58.4,58.4,0,0,1-.66-11.67A107.08,107.08,0,0,1,275.87,341.08Z" fill="#1c437d"/><path d="M336.4,292.93a30.94,30.94,0,0,0-9.11-11.2,33.53,33.53,0,0,0-13.91-5.92q-16.28-3.24-31.87,6.9t-26.65,29.11a130.61,130.61,0,0,0-15.38,40.71q-4.42,22.3,2.44,36.06a29.94,29.94,0,0,0,21.9,16.7c11.58,2.29,22.72-.31,33.4-7.87s19.67-17.95,27.06-31.25a136.86,136.86,0,0,0,15-39.79,63.51,63.51,0,0,0,1.19-18.22A42.41,42.41,0,0,0,336.4,292.93Z" fill="none"/><path d="M425.73,511c2-1.23,4.08-2.42,6-3.73a134.92,134.92,0,0,0,32.14-30.56l-39.42-7.82a116.53,116.53,0,0,1-46.68,24.37q-26.09,6.77-61.11,4.11-44-4.14-76.75-18.43t-53.32-37.06a120.59,120.59,0,0,1-28-51.76q-7.42-29-1.07-61a192.7,192.7,0,0,1,15.24-45.84,162.31,162.31,0,0,1,25.57-38.6,129.55,129.55,0,0,1,39.09-30.21,142,142,0,0,1,48.71-13.89q26.75-2.9,56.89,3.07,29.63,5.89,51.42,18.71t34.8,30.51a99.35,99.35,0,0,1,17.56,39,111.47,111.47,0,0,1-21.47,90.74q-16.26,20.25-34.68,30.21t-28.41,8a6.73,6.73,0,0,1-4.62-3.42,10,10,0,0,1-.8-7.12c.54-2.73,2.52-8.15,5.92-16.21l54.59-127.74-48.86-9.69-8.71,19.72q-10.56-28.16-43.88-34.79a83.63,83.63,0,0,0-55.68,7.71q-26.61,13.46-44.71,39.24a143.51,143.51,0,0,0-23.91,55q-5.58,28.09,2.75,49.64t26.34,33.51a69.69,69.69,0,0,0,39.74,12q21.74,0,41-12.82c.37,7.8,3,14,7.87,18.45s12.31,7.79,22.3,9.77a109.56,109.56,0,0,0,50.51-1.48,126.08,126.08,0,0,0,44.92-22.39,143.59,143.59,0,0,0,52.54-84.93q6.35-31.94.58-60.66a131.67,131.67,0,0,0-22.82-52.17q-17.07-23.46-44.35-39.63t-62.43-23.12q-42.95-8.52-81.4-1.28T201,196a176.41,176.41,0,0,0-49.7,52.25q-20,31.79-27.84,71.4-7.52,37.9-1,71.77a149.6,149.6,0,0,0,27,61.4q20.4,27.53,54.49,46.77A231,231,0,0,0,230.19,512H412.3A101.74,101.74,0,0,0,425.73,511ZM339.3,326.38a136.86,136.86,0,0,1-15,39.79q-11.08,20-27.06,31.25c-10.68,7.56-21.82,10.16-33.4,7.87a29.94,29.94,0,0,1-21.9-16.7q-6.89-13.73-2.44-36.06a130.61,130.61,0,0,1,15.38-40.71q11.09-19,26.65-29.11t31.87-6.9a33.53,33.53,0,0,1,13.91,5.92,30.94,30.94,0,0,1,9.11,11.2,42.41,42.41,0,0,1,4.09,15.22A63.51,63.51,0,0,1,339.3,326.38Z" fill="#fff"/><path d="M272.71,396.67c1.8,2.43,3.2,3.15,6.15,3.25,3.59.08,8.47-.57,14.49-6.51,6.77-6.67,12.17-15.59,16.09-26.53a112.69,112.69,0,0,0,7-34.61,39.92,39.92,0,0,0-1.1-11.57,18.75,18.75,0,0,0-2.92-6.47,7.16,7.16,0,0,0-2.52-2.32,11.14,11.14,0,0,0-4.66-.92c-3.3-.08-7.85.52-13.77,5.92-6.44,5.89-11.67,14-15.57,24.18a107.08,107.08,0,0,0-7,35.1,58.4,58.4,0,0,0,.66,11.67C270.34,392.71,271.74,395.36,272.71,396.67Z" fill="none"/></svg>